<!DOCTYPE svg PUBLIC "-//W3C//DTD SVG 20010904//EN" "http://www.w3.org/TR/2001/REC-SVG-20010904/DTD/svg10.dtd">
<svg version="1.0" xmlns="http://www.w3.org/2000/svg" width="128px" height="128px" viewBox="0 0 1280 1280" preserveAspectRatio="xMidYMid meet">
<g id="layer1" fill="#36342e" stroke="none">
 <path d="M1078 1128 c-25 -20 -188 -210 -188 -219 0 -5 -18 -9 -40 -9 -37 0 -40 2 -40 29 0 31 -21 46 -39 28 -6 -6 -11 -21 -11 -34 0 -21 -5 -23 -45 -23 -43 0 -45 1 -45 29 0 29 -14 42 -37 34 -7 -3 -13 -18 -13 -34 0 -28 -2 -29 -45 -29 -43 0 -45 1 -45 29 0 29 -14 42 -37 34 -7 -3 -13 -18 -13 -34 0 -28 -2 -29 -45 -29 -40 0 -45 2 -45 23 0 28 -17 47 -36 40 -10 -4 -14 -27 -14 -90 0 -82 1 -84 23 -81 16 2 23 11 25 31 3 25 7 27 47 27 40 0 44 -2 47 -27 2 -20 9 -28 23 -28 14 0 21 8 23 28 3 25 7 27 47 27 40 0 44 -2 47 -27 2 -20 9 -28 23 -28 14 0 21 8 23 28 3 25 7 27 47 27 40 0 44 -2 47 -27 2 -20 9 -28 23 -28 14 0 21 8 23 28 3 25 7 27 46 27 40 0 44 -2 50 -30 7 -37 42 -42 52 -7 3 13 49 53 116 101 156 113 161 126 83 195 -39 34 -53 37 -77 19z"/>
 <path d="M365 655 c-56 -55 -18 -168 55 -168 66 0 101 83 65 152 -24 48 -81 56 -120 16z"/>
 <path d="M822 673 c-7 -3 -19 -18 -27 -33 -36 -70 -1 -153 65 -153 73 0 111 113 55 168 -23 24 -61 31 -93 18z"/>
 </g>
<g id="layer2" fill="#fcc21b" stroke="none">
 <path d="M436 1179 c-201 -26 -382 -103 -421 -179 -20 -39 -20 -189 0 -306 68 -395 284 -604 625 -604 177 0 311 51 420 160 136 136 220 376 220 629 0 104 -16 147 -61 171 -16 9 -20 9 -14 1 13 -21 -22 -56 -133 -137 -67 -48 -113 -88 -116 -101 -10 -35 -45 -30 -52 7 -6 28 -10 30 -50 30 -39 0 -43 -2 -46 -27 -2 -20 -9 -28 -23 -28 -14 0 -21 8 -23 28 -3 25 -7 27 -47 27 -40 0 -44 -2 -47 -27 -2 -20 -9 -28 -23 -28 -14 0 -21 8 -23 28 -3 25 -7 27 -47 27 -40 0 -44 -2 -47 -27 -2 -20 -9 -28 -23 -28 -14 0 -21 8 -23 28 -3 25 -7 27 -47 27 -40 0 -44 -2 -47 -27 -2 -20 -9 -29 -25 -31 -22 -3 -23 -1 -23 81 0 63 4 86 14 90 19 7 36 -12 36 -40 0 -21 5 -23 45 -23 43 0 45 1 45 29 0 29 14 42 38 34 6 -3 12 -18 12 -34 0 -28 2 -29 45 -29 43 0 45 1 45 29 0 29 14 42 38 34 6 -3 12 -18 12 -34 0 -28 2 -29 45 -29 40 0 45 2 45 23 0 13 5 28 11 34 18 18 39 3 39 -28 0 -27 3 -29 40 -29 22 0 40 4 40 8 0 5 41 55 90 112 50 57 88 105 86 107 -10 10 -158 43 -236 52 -98 13 -295 12 -394 0z m19 -505 c46 -18 59 -116 22 -160 -53 -62 -137 -18 -137 72 0 70 54 111 115 88z m460 -19 c56 -55 18 -168 -55 -168 -66 0 -101 83 -65 153 24 47 81 55 120 15z"/>
 </g>

</svg>